<svg id="svg66" clip-rule="evenodd" fill-rule="evenodd" height="512" stroke-linejoin="round" stroke-miterlimit="2" viewBox="0 0 64 64" width="512" xmlns="http://www.w3.org/2000/svg" xmlns:svg="http://www.w3.org/2000/svg"><g stroke-width=".546"><path id="path4" d="m16.005 8.999776v13.000028c0 .551957.448.999956 1 .999956s1-.447999 1-.999956v-13.000028c0-.5519568-.448-.9999563-1-.9999563s-1 .4479995-1 .9999563z"/><path id="path8" d="m28 8.999776v7.999948c0 .551957.448.999957 1 .999957s1-.448 1-.999957v-7.999948c0-.5519568-.448-.9999563-1-.9999563s-1 .4479995-1 .9999563z"/><path id="path12" d="m32.005 9.0015632.014 7.9999488c.001.551956.45.99936 1.002.998169.552-.000894.999-.449787.998-1.001744l-.014-7.9999482c-.001-.5519568-.45-.9990627-1.002-.9981691s-.999.4497867-.998 1.0017435z"/><path id="path16" d="m36.009 8.999776v9.999861c0 .551957.448 1.000254 1 1.000254s1-.448297 1-1.000254v-9.999861c0-.5519568-.448-.9999563-1-.9999563s-1 .4479995-1 .9999563z"/></g><path id="path20" d="m54.004522 10.999875c0-1.6564029-1.343201-2.9997805-3.000003-2.9997805-1.656803 0-3.000004 1.3433776-3.000004 2.9997805v10.000016c0 1.656963 1.343201 3.000341 3.000004 3.000341 1.656802 0 3.000003-1.343378 3.000003-3.000341zm-2.000002 0c0-.552134-.447734-.999553-1.000001-.999553-.552268 0-1.000002.447419-1.000002.999553v10.000016c0 .552694.447734 1.000113 1.000001 1.000113.552268 0 1.000002-.447419 1.000002-1.000113z" stroke-width=".386"/><path id="path24" d="m46.014522 10.999875c0-1.6564029-1.343201-2.9997805-3.000004-2.9997805-1.656802 0-3.000003 1.3433776-3.000003 2.9997805v10.000016c0 1.656963 1.343201 3.000341 3.000004 3.000341 1.656802 0 3.000003-1.343378 3.000003-3.000341zm-2.000002 0c0-.552134-.447734-.999553-1.000002-.999553-.552267 0-1.000001.447419-1.000001.999553v10.000016c0 .552694.447734 1.000113 1.000001 1.000113.552268 0 1.000002-.447419 1.000002-1.000113z" stroke-width=".386"/><path id="path28" d="m25.995522 16.999997v-6.000122c0-1.6564029-1.343201-2.9997805-3.000004-2.9997805-.795734 0-1.558668.3158253-2.121335.8785992-.562668.5627738-.878668 1.3260183-.878668 2.1211813v8.000349c0 .551574.448 1.000113 1.000001 1.000113s1.000001-.448539 1.000001-1.000113v-8.000349c0-.264868.105334-.519096.292801-.706687.187733-.187591.441867-.292866.7072-.292866.552268 0 1.000002.447419 1.000002.999553v6.000122c0 .552134.448 1.000113 1.000001 1.000113s1.000001-.447979 1.000001-1.000113z" stroke-width=".386"/><path id="path32" d="m45.0128 29.999262h9.9872c2.7616 0 5.0016-2.239012 5.0016-5.00008v-18.0004942c0-2.7610673-2.24-5.0000797-5.0016-5.0000797h-40c-2.7616 0-5.0016 2.2390124-5.0016 5.0000797.0032 4.8888052.0032 13.1116892.0032 18.0004942-.0032 1.850071 1.0048 3.466154 2.4992 4.330352.4768.276627 1.088.112315 1.3664-.365022.2752-.477337.112-1.089868-.368-1.366495-.896-.518935-1.5008-1.488168-1.4976-2.598835 0-4.888805 0-13.111689-.0032-18.0004942 0-1.6566404 1.344-3.0002558 3.0016-3.0002558h40c1.6576 0 3.0016 1.3436154 3.0016 3.0002558v18.0004942c0 1.656641-1.344 2.999216-3.0016 2.999216h-9.9872c-.5504 0-.9984.448219-.9984 1.000432s.448 1.000432.9984 1.000432z" stroke-width="1.824"/><path id="path36" d="m33.004474 62.00068h21.995671c.551764 0 1.000101-.448 1.000101-1s-.448337-1-1.000101-1h-21.995671c-.551764 0-1.000101.448-1.000101 1s.448337 1 1.000101 1z" stroke-width=".684"/><path id="path40" d="m8.99819 62.00068h16.001385c.551878 0 .999916-.448.999916-1s-.448038-1-.999916-1h-16.001385c-.5518776 0-.9999163.448-.9999163 1s.4480387 1 .9999163 1z" stroke-width=".583"/><path id="circle44" d="m59 61.99968c-.552285 0-1-.447715-1-1s.447715-1 1-1 1 .447715 1 1-.447715 1-1 1z" stroke-width=".25"/><path id="circle48" d="m29 62.000679c-.552285 0-1-.447715-1-1s.447715-1 1-1 1 .447715 1 1-.447715 1-1 1z" stroke-width=".25"/><path id="circle52" d="m5 62.000679c-.5522847 0-1-.447715-1-1s.4477153-1 1-1 1 .447715 1 1-.4477153 1-1 1z" stroke-width=".25"/><path id="path56" d="m22.556114 26.633134c-3.512904 3.512904-3.512904 9.215008 0 12.727912.390322.390323 1.02389.390323 1.414212 0 .390323-.390322.390323-1.02389 0-1.414212-2.732258-2.732259-2.732258-7.167229 0-9.899488.390323-.390322.390323-1.02389 0-1.414212-.390322-.390323-1.02389-.390323-1.414212 0z" stroke-width="1.6"/><path id="path60" d="m19.048 41.45568c-4.382-5.105-4.156-12.816.68-17.651 5.073-5.073 13.311-5.073 18.385 0 5.073 5.073 5.073 13.311 0 18.385-4.836 4.835-12.546 5.062-17.651.68-.951667.952-1.903333 1.904-2.855 2.856 1.171 1.171 1.171 3.071 0 4.242l-7.071 7.071c-1.172 1.172-3.071 1.172-4.243 0l-1.414-1.414c-1.172-1.172-1.172-3.071 0-4.243l7.071-7.071c1.171-1.171 3.071-1.171 4.242 0 .952369-.950382 1.904258-1.903258 2.856-2.855zm-5.684 4.269c.39-.39 1.024-.39 1.414 0l1.415 1.415c.39.39.39 1.023 0 1.414-1.882 1.882-5.19 5.189-7.071 7.071-.391.391-1.024.391-1.415 0l-1.414-1.414c-.391-.391-.391-1.024 0-1.415zm23.334-20.506c4.293 4.293 4.293 11.264 0 15.557-4.292 4.292-11.263 4.292-15.556 0-4.293-4.293-4.293-11.264 0-15.557s11.264-4.293 15.556 0z"/></svg>