<svg id="Capa_1" enable-background="new 0 0 512 512" height="512" viewBox="0 0 512 512" width="512" xmlns="http://www.w3.org/2000/svg"><g><path d="m474.32 104.26c4.143 0 7.5-3.358 7.5-7.5v-41.98c0-30.206-24.565-54.78-54.76-54.78h-272.92c-4.143 0-7.5 3.358-7.5 7.5v44.972h-39.443c-17.658 0-32.023 14.365-32.023 32.023v69.535c-24.851.009-44.993 20.157-44.993 45.01v260.47c0 28.99 23.501 52.49 52.49 52.49h344.39c30.195 0 54.761-24.574 54.761-54.78v-327.96c0-4.142-3.358-7.5-7.5-7.5s-7.5 3.358-7.5 7.5v327.96c0 21.935-17.837 39.78-39.761 39.78h-243.846c9.743-9.537 15.805-22.821 15.805-37.5v-260.46c0-16.548 13.463-30.01 30.011-30.01h37.649c26.914 0 48.811-21.896 48.811-48.81v-105.22h111.569c21.924 0 39.761 17.845 39.761 39.78v41.98c-.001 4.142 3.357 7.5 7.499 7.5zm-312.68-89.26h138.85v37.472h-138.85zm-116.46 444.5v-260.47c0-16.566 13.428-29.996 29.993-30v327.217c-17.113-3.477-29.993-18.607-29.993-36.747zm221.5-305.47h-37.65c-24.819 0-45.011 20.191-45.011 45.01v260.46c0 20.678-16.817 37.5-37.489 37.5h-11.47v-97.98c0-4.142-3.357-7.5-7.5-7.5s-7.5 3.358-7.5 7.5v97.98h-29.887v-412.505c0-9.387 7.637-17.023 17.023-17.023h193.294v36.788h-148.41c-17.656 0-32.021 14.364-32.021 32.02v232.74c0 4.142 3.357 7.5 7.5 7.5s7.5-3.358 7.5-7.5v-232.74c0-9.385 7.636-17.02 17.021-17.02h148.41v.96c0 18.643-15.167 33.81-33.81 33.81z"/><path d="m258.02 226.821c-14.898 0-27.02 12.121-27.02 27.02v56.542c0 14.898 12.121 27.019 27.02 27.019h116.691c14.898 0 27.019-12.121 27.019-27.019v-56.543c0-14.898-12.12-27.02-27.019-27.02h-116.691zm128.709 27.019v56.542c0 6.627-5.392 12.019-12.019 12.019h-116.69c-6.628 0-12.02-5.392-12.02-12.019v-56.542c0-6.627 5.392-12.02 12.02-12.02h116.691c6.627.001 12.018 5.393 12.018 12.02z"/><path d="m349.19 261.29h-81.832c-4.143 0-7.5 3.358-7.5 7.5s3.357 7.5 7.5 7.5h81.832c4.143 0 7.5-3.358 7.5-7.5s-3.357-7.5-7.5-7.5z"/><path d="m316.365 287.933h-49.007c-4.143 0-7.5 3.358-7.5 7.5s3.357 7.5 7.5 7.5h49.007c4.143 0 7.5-3.358 7.5-7.5s-3.357-7.5-7.5-7.5z"/></g></svg>