<svg id="Capa_1" enable-background="new 0 0 512 512" height="512" viewBox="0 0 512 512" width="512" xmlns="http://www.w3.org/2000/svg"><g><path d="m473.61 270.79c0-4.142-3.357-7.5-7.5-7.5s-7.5 3.358-7.5 7.5v181.76h-17.32v-437.55h17.32v220.79c0 4.142 3.357 7.5 7.5 7.5s7.5-3.358 7.5-7.5v-228.29c0-4.142-3.357-7.5-7.5-7.5h-32.32c-4.143 0-7.5 3.358-7.5 7.5v89.476h-17.326v-89.476c0-4.142-3.357-7.5-7.5-7.5h-290.928c-4.143 0-7.5 3.358-7.5 7.5v89.476h-17.326v-89.476c0-4.142-3.357-7.5-7.5-7.5h-32.32c-4.143 0-7.5 3.358-7.5 7.5v75.14c0 4.142 3.357 7.5 7.5 7.5s7.5-3.358 7.5-7.5v-67.64h17.32v437.55h-17.32v-334.91c0-4.142-3.357-7.5-7.5-7.5s-7.5 3.358-7.5 7.5l-.004 386.86c0 4.142 3.357 7.5 7.5 7.5h32.325c4.143 0 7.5-3.358 7.5-7.5v-36.95h236.449c4.143 0 7.5-3.358 7.5-7.5s-3.357-7.5-7.5-7.5h-236.45v-17.322h340.58v17.322h-69.13c-4.143 0-7.5 3.358-7.5 7.5s3.357 7.5 7.5 7.5h69.129v36.95c0 4.142 3.357 7.5 7.5 7.5h32.325c4.143 0 7.5-3.358 7.5-7.5zm-402.899 226.21h-17.325v-29.447h17.325zm273.602-482h17.325v17.325h-17.325zm-32.325 0h17.325v24.825c0 4.142 3.357 7.5 7.5 7.5h32.325c4.143 0 7.5-3.358 7.5-7.5v-24.825h17.325v81.976h-81.976v-81.976zm-64.651 0h17.326v17.325h-17.326zm-32.325 0h17.325v24.825c0 4.142 3.357 7.5 7.5 7.5h32.326c4.143 0 7.5-3.358 7.5-7.5v-24.825h17.325v81.976h-81.977v-81.976zm-64.651 0h17.325v17.325h-17.325zm-32.325 0h17.325v24.825c0 4.142 3.357 7.5 7.5 7.5h32.325c4.143 0 7.5-3.358 7.5-7.5v-24.825h17.325v81.976h-81.976v-81.976zm81.976 405.228h-81.976v-81.976h17.325v24.825c0 4.142 3.357 7.5 7.5 7.5h32.325c4.143 0 7.5-3.358 7.5-7.5v-24.825h17.325v81.976zm-49.651-64.651v-17.325h17.325v17.325zm146.627 64.651h-81.977v-81.976h17.325v24.825c0 4.142 3.357 7.5 7.5 7.5h32.326c4.143 0 7.5-3.358 7.5-7.5v-24.825h17.325v81.976zm-49.651-64.651v-17.325h17.326v17.325zm146.627 64.651h-81.976v-81.976h17.325v24.825c0 4.142 3.357 7.5 7.5 7.5h32.325c4.143 0 7.5-3.358 7.5-7.5v-24.825h17.325v81.976zm-49.651-64.651v-17.325h17.325v17.325zm81.977 64.651h-17.326v-89.476c0-4.142-3.357-7.5-7.5-7.5h-290.928c-4.143 0-7.5 3.358-7.5 7.5v89.476h-17.326v-114.301h340.58zm0-129.301h-340.58v-17.325h340.58zm-275.347-81.976h32.325c4.143 0 7.5-3.358 7.5-7.5v-24.825h17.325v81.976h-81.976v-81.976h17.325v24.825c.001 4.142 3.359 7.5 7.501 7.5zm7.5-15v-17.325h17.325v17.325zm170.288 15h32.325c4.143 0 7.5-3.358 7.5-7.5v-24.825h17.325v81.976h-81.976v-81.976h17.325v24.825c.001 4.142 3.359 7.5 7.501 7.5zm7.5-15v-17.325h17.325v17.325zm90.059 64.651h-25.408v-89.476c0-4.142-3.357-7.5-7.5-7.5h-96.976c-4.143 0-7.5 3.358-7.5 7.5v89.476h-65.813v-89.476c0-4.142-3.357-7.5-7.5-7.5h-96.976c-4.143 0-7.5 3.358-7.5 7.5v89.476h-25.407v-114.301h340.58zm0-129.301h-340.58v-17.325h340.58zm32.324 367.699h-17.325v-29.447h17.325z"/></g></svg>