<svg id="Capa_1" enable-background="new 0 0 507.936 507.936" height="512" viewBox="0 0 507.936 507.936" width="512" xmlns="http://www.w3.org/2000/svg"><g><g><circle cx="221.269" cy="32.82" r="7.44"/><path d="m384.674 31.136h-69.047c-2.38-3.473-6.375-5.756-10.894-5.756h-51.49c-3.416-14.829-16.538-25.38-31.974-25.38s-28.558 10.551-31.973 25.38h-51.49c-4.519 0-8.514 2.283-10.894 5.756h-69.047c-8.037 0-14.573 6.538-14.573 14.572v447.656c0 8.036 6.538 14.572 14.573 14.572h326.809c8.036 0 14.572-6.538 14.572-14.572v-167.668c1.016-.358 1.97-.943 2.784-1.756l53.629-53.629c2.906-2.906 2.906-7.617 0-10.522l-15.49-15.49 4.942-4.942c1.439-1.438 2.328-3.28 2.563-5.27l12.761-12.76c5.614-5.615 5.614-14.752-.001-20.368l-10.453-10.454c-5.615-5.615-14.754-5.615-20.367 0l-12.768 12.767c-1.924.23-3.787 1.081-5.261 2.554l-12.338 12.338v-172.456c-.001-8.034-6.537-14.572-14.573-14.572zm-47.166 294.779-12.484-12.484c7.071-7.071 61.884-61.884 70.338-70.338l12.484 12.484zm11.615 91.189c-8.959 17.34-23.352 31.742-40.71 40.709.767-1.353 1.563-2.936 2.246-4.502 2.662-6.091 4.052-12.656 4.12-19.237.005-.424.004-.513.004-8.467 0-1.177.957-2.133 2.133-2.133 8.216 0 8.547.013 9.872-.039 5.78-.226 11.451-1.457 16.77-3.635 0 0 .001 0 .001-.001 1.895-.775 3.771-1.684 5.564-2.695zm-69.468-33.334-12.484-12.484 47.33-47.331 12.484 12.484zm-11.474 9.572-21.899 15.643c-1.39.992-3.29.68-4.322-.71-.765-1.029-.686-2.666.188-3.89l15.448-21.627c3.542 3.54 7.349 7.348 10.585 10.584zm116.184-160.298-9.921 9.921v-171.616c0-8.498-6.915-15.413-15.413-15.413h-41.101v-9.921h66.436v187.029zm-193.077-192.783c6.13 0 11.294-4.364 12.279-10.375 1.427-8.694 8.871-15.005 17.701-15.005s16.275 6.311 17.701 15.003c.985 6.013 6.149 10.376 12.279 10.376h51.801v35.9h-87.571c-4.11 0-7.44 3.331-7.44 7.44s3.33 7.44 7.44 7.44h87.571v7.212c0 2.245-1.826 4.071-4.071 4.071h-155.417c-2.246 0-4.071-1.826-4.071-4.071v-7.212h41.267c4.11 0 7.44-3.331 7.44-7.44s-3.33-7.44-7.44-7.44h-41.267v-35.899zm-133.116 452.796v-447.04h66.437v9.921h-41.103c-8.498 0-15.412 6.914-15.412 15.413v69.255c0 4.109 3.33 7.44 7.44 7.44s7.44-3.331 7.44-7.44v-69.257c0-.293.238-.532.531-.532h41.103v27.435c0 10.45 8.502 18.952 18.952 18.952h155.416c10.45 0 18.952-8.502 18.952-18.952v-27.433h41.102c.294 0 .532.238.532.532v186.496c-11.926 11.926-90.658 90.659-103.594 103.594-3.333 3.333-6.394 6.943-9.146 10.796l-16.784 23.498c-4.674 6.544-4.683 15.151-.021 21.42 5.904 7.938 16.842 9.703 24.913 3.939l23.772-16.979c3.741-2.672 7.385-5.736 10.796-9.145 6.623-6.623 60.831-60.831 70.065-70.065v48.941c0 19.127-15.553 34.747-34.747 34.747h-9.498c-8.5 0-15.417 6.916-15.417 15.417v9.498c0 19.16-15.587 34.747-34.747 34.747h-181.648c-.293 0-.531-.238-.531-.532v-292.396c0-4.109-3.33-7.44-7.44-7.44s-7.44 3.331-7.44 7.44v292.396c0 8.498 6.914 15.413 15.412 15.413h181.649c29.194 0 56.639-11.368 77.279-32.011 20.644-20.642 32.012-48.086 32.012-77.279v-63.823l9.921-9.921v192.954h-326.196zm381.702-228.007-40.628 40.628v-20.456c9.786-9.786 20.637-20.637 30.4-30.4zm.26-64.023c.001 0 .001 0 0 0 0 .001-.001.001-.002.002zm-.338.338 9.777 9.777-10.003 10.003-9.778-9.778zm-21.878 19.172 12.483 12.484c-.414.414-9.929 9.929-12.032 12.033l-12.484-12.484z"/><path d="m198.822 321.655c3.53 3.47 9.278 3.473 12.81 0l22.143-21.762c2.931-2.88 2.972-7.591.092-10.522-2.881-2.931-7.591-2.971-10.522-.091l-18.118 17.805-52.772-51.86 14.07-13.827 32.3 31.742c3.531 3.468 9.276 3.468 12.808-.001l64.381-63.27 14.07 13.826-41.829 41.108c-2.931 2.88-2.972 7.591-.092 10.522 2.881 2.932 7.592 2.972 10.522.091l46.039-45.244c1.728-1.697 2.718-4.059 2.718-6.477s-.99-4.779-2.717-6.475l-22.307-21.923c-3.531-3.468-9.276-3.468-12.808.001l-64.381 63.27-32.297-31.74c-3.533-3.472-9.28-3.472-12.811 0l-22.307 21.922c-1.752 1.722-2.716 4.022-2.716 6.475s.965 4.753 2.717 6.475z"/></g></g></svg>