<svg id="FAVORITE" height="512" viewBox="0 0 1800 1800" width="512" xmlns="http://www.w3.org/2000/svg"><g fill="rgb(0,0,0)"><path d="m1711.338 9.595h-1622.668c-43.603 0-79.074 35.468-79.074 79.061v1622.683c0 43.594 35.472 79.065 79.074 79.065h1622.667c43.594 0 79.066-35.472 79.066-79.065v-1622.683c.001-43.593-35.471-79.061-79.065-79.061zm-1622.668 62.533h1622.667c9.117 0 16.532 7.416 16.532 16.528v194.047h-1655.739v-194.047c0-9.112 7.415-16.528 16.54-16.528zm1622.668 1655.743h-1622.668c-9.125 0-16.541-7.415-16.541-16.532v-1366.103h1655.74v1366.103c.001 9.117-7.414 16.532-16.531 16.532z"/><path d="m207.43 224.637c27.751 0 50.25-22.5 50.25-50.25 0-27.756-22.499-50.25-50.25-50.25s-50.25 22.495-50.25 50.25c0 27.75 22.499 50.25 50.25 50.25z"/><path d="m365.997 224.637c27.751 0 50.25-22.5 50.25-50.25 0-27.756-22.499-50.25-50.25-50.25s-50.25 22.495-50.25 50.25c0 27.75 22.499 50.25 50.25 50.25z"/><path d="m524.563 224.637c27.751 0 50.25-22.5 50.25-50.25 0-27.756-22.5-50.25-50.25-50.25s-50.25 22.495-50.25 50.25c0 27.75 22.5 50.25 50.25 50.25z"/><path d="m1162.234 1090.907 216.864-211.397c8.523-8.307 11.59-20.732 7.913-32.052-3.678-11.319-13.461-19.568-25.238-21.28l-299.703-43.55-134.031-271.572c-5.27-10.672-16.14-17.429-28.039-17.429-11.901 0-22.77 6.757-28.037 17.429l-134.041 271.572-299.704 43.55c-11.777 1.712-21.561 9.96-25.239 21.28-3.679 11.319-.61 23.745 7.911 32.052l216.867 211.397-51.192 298.5c-2.011 11.733 2.812 23.585 12.44 30.582 9.629 6.996 22.399 7.917 32.926 2.381l268.069-140.939 268.066 140.939c4.575 2.404 9.57 3.59 14.547 3.59 6.482 0 12.938-2.015 18.381-5.971 9.632-6.997 14.451-18.853 12.441-30.582zm-247.682 127.523c-9.108-4.789-19.993-4.789-29.101 0l-226.542 119.108 43.262-252.258c1.738-10.146-1.623-20.492-8.992-27.677l-183.274-178.651 253.276-36.805c10.184-1.48 18.986-7.875 23.54-17.103l113.279-229.503 113.268 229.504c4.555 9.228 13.361 15.623 23.542 17.103l253.278 36.805-183.273 178.651c-7.371 7.185-10.734 17.535-8.994 27.677l43.271 252.254z"/><path d="m900 1416.294c-17.269 0-31.267 13.998-31.267 31.267v106.119c0 17.269 13.998 31.267 31.267 31.267 17.27 0 31.267-13.998 31.267-31.267v-106.119c0-17.269-13.997-31.267-31.267-31.267z"/><path d="m1424.206 1150.112-100.923-32.802c-16.453-5.344-34.072 3.651-39.402 20.069-5.339 16.423 3.646 34.063 20.07 39.402l100.923 32.802c3.214 1.043 6.469 1.54 9.671 1.54 13.182 0 25.438-8.401 29.73-21.609 5.34-16.422-3.646-34.062-20.069-39.402z"/><path d="m1137.244 686.108c5.549 4.033 11.979 5.974 18.352 5.974 9.67 0 19.201-4.469 25.32-12.89l62.381-85.853c10.15-13.969 7.054-33.524-6.918-43.674-13.967-10.15-33.518-7.053-43.672 6.916l-62.381 85.853c-10.15 13.969-7.054 33.524 6.918 43.674z"/><path d="m619.075 679.19c6.117 8.421 15.65 12.892 25.321 12.892 6.37 0 12.802-1.941 18.351-5.974 13.972-10.148 17.068-29.703 6.918-43.672l-62.372-85.853c-10.148-13.965-29.703-17.071-43.672-6.918-13.972 10.148-17.068 29.703-6.918 43.672z"/><path d="m476.73 1117.311-100.933 32.793c-16.423 5.335-25.41 22.975-20.073 39.397 4.292 13.213 16.549 21.614 29.729 21.614 3.202 0 6.458-.497 9.669-1.54l100.932-32.793c16.423-5.335 25.411-22.975 20.074-39.397s-22.975-25.409-39.398-20.074z"/></g></svg>