<svg width="165" height="23" viewBox="0 0 165 23" fill="none" xmlns="http://www.w3.org/2000/svg">
    <path d="M2.92 16.537c.446.5.965.93 1.54 1.274a3.792 3.792 0 0 0 1.934.504c.44.005.875-.086 1.277-.266.36-.165.68-.41.934-.716.252-.31.444-.666.566-1.049.134-.415.2-.85.197-1.287V1.276h5.475v13.43a9.625 9.625 0 0 1-.579 3.423 7.308 7.308 0 0 1-1.671 2.654 7.105 7.105 0 0 1-2.632 1.679 9.613 9.613 0 0 1-3.54.517 10.357 10.357 0 0 1-3.29-.703 9.78 9.78 0 0 1-2.975-1.898l2.764-3.841zM18 11.779a11.15 11.15 0 0 1 .882-4.452 10.493 10.493 0 0 1 2.422-3.517 10.844 10.844 0 0 1 3.645-2.296 13.234 13.234 0 0 1 9.212 0 10.777 10.777 0 0 1 3.646 2.296 10.148 10.148 0 0 1 2.395 3.517c.58 1.41.872 2.925.855 4.452a11.497 11.497 0 0 1-.855 4.492 10.46 10.46 0 0 1-2.395 3.53 10.915 10.915 0 0 1-3.646 2.309 13.233 13.233 0 0 1-9.212 0 10.982 10.982 0 0 1-3.645-2.31 10.827 10.827 0 0 1-2.422-3.53 11.276 11.276 0 0 1-.881-4.491zm5.475 0a7.883 7.883 0 0 0 .434 2.654 6.237 6.237 0 0 0 1.224 2.083 5.602 5.602 0 0 0 1.909 1.367 6.628 6.628 0 0 0 4.974 0 5.542 5.542 0 0 0 1.909-1.367 6.235 6.235 0 0 0 1.223-2.083c.296-.853.443-1.75.435-2.654a7.527 7.527 0 0 0-.435-2.594 6.335 6.335 0 0 0-1.224-2.077 5.52 5.52 0 0 0-1.908-1.327 6.53 6.53 0 0 0-4.974 0 5.586 5.586 0 0 0-1.909 1.327 6.335 6.335 0 0 0-1.223 2.077 7.527 7.527 0 0 0-.435 2.594zM43.138 11.78c-.014-1.53.286-3.046.882-4.453a10.615 10.615 0 0 1 2.454-3.51 10.843 10.843 0 0 1 3.646-2.296 13.234 13.234 0 0 1 9.212 0 10.78 10.78 0 0 1 3.592 2.296 10.24 10.24 0 0 1 2.395 3.517c.581 1.41.873 2.925.856 4.452a11.495 11.495 0 0 1-.856 4.492 10.554 10.554 0 0 1-2.395 3.53 10.919 10.919 0 0 1-3.645 2.308 13.234 13.234 0 0 1-9.212 0 10.981 10.981 0 0 1-3.645-2.308A10.923 10.923 0 0 1 44 16.277a11.276 11.276 0 0 1-.862-4.499zm5.475 0a7.883 7.883 0 0 0 .434 2.653 6.236 6.236 0 0 0 1.224 2.084 5.6 5.6 0 0 0 1.908 1.366 6.627 6.627 0 0 0 4.974 0 5.54 5.54 0 0 0 1.909-1.366 6.234 6.234 0 0 0 1.224-2.084 7.88 7.88 0 0 0 .434-2.654 7.527 7.527 0 0 0-.434-2.594 6.335 6.335 0 0 0-1.224-2.077 5.52 5.52 0 0 0-1.908-1.327 6.53 6.53 0 0 0-4.975 0 5.586 5.586 0 0 0-1.908 1.327 6.335 6.335 0 0 0-1.224 2.077 7.527 7.527 0 0 0-.434 2.594zM69.326 1.276H74.8l7.896 12.819V1.275h5.474v21.12h-5.507l-7.896-13.05v13.05h-5.475l.033-21.12zM101.831 18.414a5.722 5.722 0 0 0 3.448-.975 3.993 3.993 0 0 0 1.606-2.787h-5.554v-4.565h11.055v2.946a10.482 10.482 0 0 1-.829 4.3 8.812 8.812 0 0 1-2.264 3.098 9.85 9.85 0 0 1-3.356 1.905 12.696 12.696 0 0 1-4.079.663 12.073 12.073 0 0 1-4.462-.823 11.024 11.024 0 0 1-3.592-2.295 10.792 10.792 0 0 1-2.409-3.517 11.848 11.848 0 0 1 0-8.97c.565-1.35 1.4-2.568 2.455-3.577a10.845 10.845 0 0 1 3.645-2.296A12.307 12.307 0 0 1 102.022.7c1.96-.058 3.901.4 5.633 1.327a13.495 13.495 0 0 1 4.264 3.98l-3.606 3.053a7.788 7.788 0 0 0-2.566-2.787 6.824 6.824 0 0 0-3.804-1.035 5.546 5.546 0 0 0-2.263.478c-.71.308-1.351.76-1.882 1.327a6.64 6.64 0 0 0-1.316 2.07 7.167 7.167 0 0 0-.487 2.694c-.01.917.14 1.83.447 2.694a6.24 6.24 0 0 0 1.237 2.07 5.523 5.523 0 0 0 1.856 1.327 5.785 5.785 0 0 0 2.296.517zM113.439 22.396l7.107-21.146h6.896l7.106 21.146h-5.474l-1.974-5.911-6.817 1.93-1.369 4.035-5.475-.054zm8.555-9.043 3.684-1.035-1.658-4.963-2.026 5.998zM155.209 6.876a6.48 6.48 0 0 1-.513 2.607 5.055 5.055 0 0 1-1.645 2.037c.436.164.848.387 1.224.664.386.289.723.638 1 1.035.296.438.519.922.658 1.433.173.603.258 1.23.25 1.858a6.898 6.898 0 0 1-.474 2.707 4.839 4.839 0 0 1-1.316 1.825 4.98 4.98 0 0 1-1.934 1.041 8.525 8.525 0 0 1-2.369.312h-13.213V1.275h12.245a9.668 9.668 0 0 1 2.369.28 5.07 5.07 0 0 1 1.935.935 4.552 4.552 0 0 1 1.316 1.732c.34.841.499 1.746.467 2.654zm-7.133 2.123a2.448 2.448 0 0 0 1.316-.743c.284-.322.443-.737.448-1.168a1.125 1.125 0 0 0-.553-1.035 2.276 2.276 0 0 0-1.237-.345h-5.817v4.744l5.843-1.453zm2.553 6.714a1.862 1.862 0 0 0-.237-.948 2.28 2.28 0 0 0-.618-.664 3.142 3.142 0 0 0-.856-.431 5.972 5.972 0 0 0-.973-.239l-5.686 1.566v3.052h5.686a3.303 3.303 0 0 0 1.921-.53 1.994 1.994 0 0 0 .763-1.805zM164.842 1.276v21.12h-5.475V1.275h5.475z" fill="#333B44"/>
</svg>
