<svg width="31" height="16" viewBox="0 0 31 16" fill="none" xmlns="http://www.w3.org/2000/svg">
    <rect width="31" height="16" rx="8" fill="#4374FF"/>
    <path d="M9.47 9.196V12H7.94V4.094h2.61c1.927 0 2.89.825 2.89 2.476 0 .798-.292 1.441-.875 1.928-.58.487-1.311.72-2.192.698h-.902zm0-3.883v2.686h.78c1.056 0 1.584-.457 1.584-1.37 0-.877-.517-1.316-1.552-1.316H9.47zm7.996 2.422a1.386 1.386 0 0 0-.725-.177c-.376 0-.677.154-.902.462-.226.304-.339.714-.339 1.23V12h-1.498V6.355H15.5V7.44h.016c.276-.788.772-1.182 1.488-1.182.204 0 .358.025.462.075v1.402zm-.029 1.477c0-.923.272-1.652.816-2.186.545-.537 1.282-.805 2.213-.805.9 0 1.608.263 2.127.79.523.522.785 1.224.785 2.105 0 .916-.27 1.65-.811 2.202-.538.548-1.266.822-2.186.822-.903 0-1.619-.264-2.149-.79-.53-.53-.795-1.242-.795-2.138zm1.515-.021c0 1.185.492 1.778 1.477 1.778.949 0 1.423-.607 1.423-1.821 0-1.175-.476-1.762-1.429-1.762-.465 0-.827.161-1.084.484-.258.318-.387.759-.387 1.32z" fill="#fff"/>
</svg>
