<svg width="58" height="65" viewBox="0 0 58 65" fill="none" xmlns="http://www.w3.org/2000/svg">
    <path d="m2.76 50.425 23.093 13.387a5.491 5.491 0 0 0 5.481 0l23.092-13.387a5.493 5.493 0 0 0 2.007-2.014 5.521 5.521 0 0 0 .734-2.752v-7.83l-12.532 7.105-13.757 7.977a4.317 4.317 0 0 1-4.317 0L12.09 44.522a4.346 4.346 0 0 1-1.578-1.589 4.368 4.368 0 0 1-.58-2.166V30.27L0 35.914v9.745c.003.968.26 1.917.745 2.754a5.506 5.506 0 0 0 2.016 2.012z" fill="#69C2FF"/>
    <path d="M28.72 11.247c.758 0 1.502.2 2.159.579l14.459 8.388c.655.382 1.199.93 1.578 1.589.378.659.578 1.406.58 2.167V34.1l9.66-5.457V18.89a5.54 5.54 0 0 0-.736-2.753 5.513 5.513 0 0 0-2.006-2.02L31.33.739a5.471 5.471 0 0 0-5.488 0L2.749 14.118a5.526 5.526 0 0 0-2.004 2.02 5.554 5.554 0 0 0-.737 2.753v8.097l13.505-7.631 13.036-7.558a4.29 4.29 0 0 1 2.172-.552z" fill="#4374FF"/>
    <path d="m39.444 26.689-10.52 4.918-.324.153V44.73h.218c.233-.02.459-.091.662-.206l9.176-5.238a1.691 1.691 0 0 0 .84-1.47v-10.96a1.255 1.255 0 0 0-.052-.166z" fill="#4374FF"/>
    <path d="M39.437 26.642a1.718 1.718 0 0 0-.503-1.01l-9.852-5.717a1.497 1.497 0 0 0-1.324.153l-9.44 5.397a1.674 1.674 0 0 0-.59.825l10.878 5.457.324-.153 10.52-4.919a.132.132 0 0 1-.013-.033z" fill="#69C2FF"/>
    <path d="m27.852 32.166-10.11 5.317a1.713 1.713 0 0 0 .841 1.47l9.176 5.543c.256.146.546.224.84.226V31.76l-.747.406z" fill="#C3E7FC"/>
</svg>
